<?xml version="1.0" encoding="utf-8"?>
<!-- Generator: Adobe Illustrator 19.0.0, SVG Export Plug-In . SVG Version: 6.00 Build 0)  -->
<svg version="1.1" id="Layer_1_copy" xmlns="http://www.w3.org/2000/svg" xmlns:xlink="http://www.w3.org/1999/xlink" x="0px"
	 y="0px" viewBox="0 0 512 512" enable-background="new 0 0 512 512" xml:space="preserve">
<line display="none" fill="none"  stroke-width="12" stroke-linecap="round" stroke-miterlimit="10" x1="229.278" y1="80.75" x2="229.278" y2="111.75"/>
<line display="none" fill="none" stroke-width="12" stroke-linecap="round" stroke-miterlimit="10" x1="277.278" y1="78.75" x2="277.278" y2="110.75"/>
<g>
	<path d="M253.378,103.5c-103.664,0-188,84.336-188,188c0,102.672,82.735,186.371,185.036,187.962
		c0.875,0.499,1.885,0.788,2.964,0.788s2.089-0.289,2.964-0.788c102.3-1.591,185.036-85.29,185.036-187.962
		C441.378,187.836,357.041,103.5,253.378,103.5z M259.378,467.387V448.25c0-3.313-2.687-6-6-6s-6,2.687-6,6v19.137
		c-92.661-3.121-167.392-78.206-169.929-171.012h20.929c3.313,0,6-2.687,6-6s-2.687-6-6-6H77.534
		c3.673-91.765,77.933-165.666,169.844-168.762v20.137c0,3.313,2.687,6,6,6s6-2.687,6-6v-20.137
		c91.91,3.096,166.17,76.996,169.844,168.762h-21.844c-3.313,0-6,2.687-6,6s2.687,6,6,6h21.929
		C426.77,389.181,352.039,464.265,259.378,467.387z"/>
	<path d="M212.378,84.75h82c13.785,0,25-11.215,25-25s-11.215-25-25-25h-82c-13.785,0-25,11.215-25,25
		S198.593,84.75,212.378,84.75z M212.378,46.75h82c7.168,0,13,5.832,13,13s-5.832,13-13,13h-82c-7.168,0-13-5.832-13-13
		S205.209,46.75,212.378,46.75z"/>
	<path d="M417.808,163.284c3.077,2.906,7.078,4.49,11.313,4.49c0.162,0,0.325-0.002,0.487-0.007
		c4.415-0.126,8.508-1.956,11.524-5.15c3.018-3.195,4.609-7.386,4.483-11.801c-0.127-4.415-1.956-8.507-5.151-11.524l-36.085-34.076
		c-6.614-6.247-17.079-5.947-23.325,0.668c-6.246,6.616-5.946,17.079,0.669,23.325L417.808,163.284z M388.324,112.75
		c1.184-1.253,2.796-1.971,4.541-2.021c0.064-0.002,0.129-0.002,0.193-0.002c1.673,0,3.248,0.621,4.455,1.76l36.085,34.076
		c1.253,1.184,1.971,2.796,2.021,4.541c0.05,1.744-0.574,3.395-1.757,4.648c-1.184,1.253-2.796,1.971-4.541,2.021
		c-1.741,0.053-3.396-0.575-4.648-1.758l-36.085-34.076C385.982,119.478,385.864,115.355,388.324,112.75z"/>
	<path d="M344.704,199.844l-82.52,77.186c-2.528-1.674-5.554-2.655-8.807-2.655c-4.906,0-9.298,2.224-12.236,5.712
		l-48.031-27.742c-2.87-1.656-6.539-0.675-8.197,2.195c-1.657,2.869-0.675,6.539,2.195,8.196l50.342,29.077
		c0.73,8.151,7.59,14.563,15.927,14.563c8.822,0,16-7.178,16-16c0-1.137-0.123-2.244-0.35-3.315l83.873-78.452
		c2.42-2.264,2.547-6.061,0.283-8.48C350.92,197.707,347.124,197.582,344.704,199.844z"/>
</g>
</svg>
