<svg xmlns="http://www.w3.org/2000/svg" viewBox="0 0 512 512"><path d="M140.7 432H68.5c-5.5 0-9.9-4.4-9.9-9.9V89.9c0-5.5 4.4-9.9 9.9-9.9h72.2c5.5 0 9.9 4.4 9.9 9.9v332.2C150.6 427.6 146.2 432 140.7 432zM70.6 420h68V92h-68V420z"/><rect x="77.6" y="113.5" width="54" height="12"/><rect x="81.9" y="135.8" width="45.5" height="12"/><rect x="77.6" y="158" width="54" height="12"/><rect x="81.9" y="389" width="45.5" height="12"/><path d="M245.7 432h-72.2c-5.5 0-9.9-4.4-9.9-9.9V89.9c0-5.5 4.4-9.9 9.9-9.9h72.2c5.5 0 9.9 4.4 9.9 9.9v332.2C255.6 427.6 251.2 432 245.7 432zM175.6 420h68V92h-68V420z"/><rect x="182.6" y="113.5" width="54" height="12"/><rect x="186.9" y="135.8" width="45.5" height="12"/><rect x="182.6" y="158" width="54" height="12"/><rect x="186.9" y="389" width="45.5" height="12"/><path d="M380.9 431.4c-1.4 0-2.9-0.3-4.2-0.9 -2.4-1.1-4.2-3.1-5.1-5.6l-113.6-312.1c-0.9-2.5-0.8-5.2 0.3-7.6 1.1-2.4 3.1-4.2 5.6-5.1l67.8-24.7c2.5-0.9 5.2-0.8 7.6 0.3s4.2 3.1 5.1 5.6l113.6 312.1c0.9 2.5 0.8 5.2-0.3 7.6s-3.1 4.2-5.6 5.1h0L384.3 430.8C383.2 431.2 382.1 431.4 380.9 431.4zM270 110.6L382.2 418.8l63.9-23.3L333.9 87.3 270 110.6z"/><rect x="305.4" y="97.8" transform="matrix(0.342 0.9397 -0.9397 0.342 322.1413 -210.4673)" width="12" height="54"/><rect x="313" y="123" transform="matrix(0.342 0.9397 -0.9397 0.342 346.7955 -203.8614)" width="12" height="45.5"/><rect x="320.6" y="139.6" transform="matrix(0.342 0.9397 -0.9397 0.342 371.4496 -197.2555)" width="12" height="54"/><rect x="399.6" y="360.9" transform="matrix(0.342 0.9397 -0.9397 0.342 627.4101 -128.6737)" width="12" height="45.5"/></svg>