<svg xmlns="http://www.w3.org/2000/svg" viewBox="0 0 512 512" class="pen"><path d="M73.7 425.1l11.6 11.6 -12 12c-3.2 3.2-8.4 3.2-11.6 0 -3.2-3.2-3.2-8.4 0-11.6L73.7 425.1zM337 60c-9.8-9.8-16.3-2.7-26.1 7.1l-103.8 103.8c-9.8 9.8-14.4 14.1-4.6 23.9L337 60zM254.6 311l-54.6 55c-21.8 20-60.8 41.2-101 45.5 4.5-29 20.5-69.5 48.5-99.5l54-54 -8.2-8.3 -54.7 54.7c-30.7 30.7-42 69.4-53 109.8l11.4 10.3c41.6-10.7 80.4-20 111.2-50.8l54.7-54.7L254.6 311zM362.5 73.1c21.2-21.2 55.5-21.2 76.6 0 21.2 21.2 21.2 55.5 0 76.6L286.4 302.4l-76.6-76.6L362.5 73.1zM433.1 80.4c-20.4-21.8-49.6-12.4-59-3l-149 148 62 62 149-149C445.5 129 453.1 97.2 433.1 80.4z"/></svg>