<svg xmlns="http://www.w3.org/2000/svg" viewBox="0 0 512 512"><rect x="147.4" y="165.8" width="190" height="11"/><rect x="147.4" y="249.9" width="190" height="11"/><path d="M453.1 183.2l-4.9 3.1C427.7 199 410 210.8 394 223V72H91v368h303V281.3c21-27.7 42.5-50.1 66.9-71.4l2.8-2.4L453.1 183.2zM384 430H101V82h283v148.7c-28 22.1-52.5 46.5-82.8 80.6 -24.1-17-39.7-26.2-64.3-38.1l-3.1-1.5 -27.3 25.3 4 3.7C223.5 312.9 234.7 324 244.9 334H147v11h108.6c18.3 19 33.9 37.2 52.7 59.4l4.7 5.5 3.5-6.3C341.5 358.8 363 323.9 384 294.8V430zM311.3 392.4c-29-34.1-51.2-59-90.1-95.4l14.4-13.3c23.7 11.6 38.5 20.6 63.5 38.4l3.7 2.6 3-3.4c50.4-57.2 84.5-86.8 142.9-123.5l3 6.9C400.8 249.7 363.4 299.7 311.3 392.4z"/></svg>