<svg xmlns="http://www.w3.org/2000/svg" viewBox="44.7 45.3 512 512"><path d="M472.2 352.9H130.4V126.9h341.8V352.9zM141.4 341.9h319.8V137.9H141.4V341.9z"/><polygon points="507.4 475.8 93.8 475.8 129.3 364.3 139.8 367.6 108.9 464.8 492.6 464.8 462.9 367.7 473.4 364.5 "/><path d="M351.1 453.9h-90.6l5.9-42.1h78.8L351.1 453.9zM270.8 444.9h69.9l-3.4-24.1h-63.1L270.8 444.9z"/><polygon points="184.5 379.8 169.4 379.8 171.2 369.1 186.2 369.1 "/><polygon points="214.9 379.8 199.8 379.8 201.6 369.1 216.6 369.1 "/><polygon points="245.7 379.8 230.2 379.8 232 369.1 247 369.1 "/><polygon points="307.8 379.8 291 379.8 291.6 369.1 307 369.1 "/><polygon points="276.5 379.8 260.6 379.8 261.6 369.1 277.4 369.1 "/><polygon points="414.2 379.8 429.4 379.8 427.5 369.1 412.6 369.1 "/><polygon points="383.8 379.8 399 379.8 397.1 369.1 382.2 369.1 "/><polygon points="353 379.8 368.6 379.8 366.7 369.1 351.8 369.1 "/><polygon points="322.2 379.8 338.2 379.8 337.1 369.1 321.4 369.1 "/><polygon points="166.8 399.4 151.6 399.4 153.5 388.7 168.5 388.7 "/><polygon points="198 399.4 182.8 399.4 184.7 388.7 199.6 388.7 "/><polygon points="229.6 399.4 214 399.4 215.8 388.7 230.8 388.7 "/><polygon points="324.3 399.4 307.7 399.4 307.5 388.7 323.6 388.7 "/><polygon points="261.1 399.4 245.2 399.4 246.2 388.7 262 388.7 "/><polygon points="433.8 399.4 449 399.4 447.1 388.7 432.2 388.7 "/><polygon points="402.6 399.4 417.8 399.4 416 388.7 401 388.7 "/><polygon points="371.1 399.4 386.6 399.4 384.8 388.7 369.8 388.7 "/><polygon points="339.5 399.4 355.5 399.4 354.4 388.7 338.7 388.7 "/><polygon points="293.1 399.4 276.3 399.4 276.9 388.7 293.1 388.7 "/></svg>