<svg xmlns="http://www.w3.org/2000/svg" viewBox="0 0 650 500"><rect x="356.3" y="212.1" width="14" height="182.3"/><rect x="322.3" y="136.2" width="14" height="334"/><rect x="288.3" y="167.2" width="14" height="272"/><rect x="424.3" y="263.2" width="14" height="80.2"/><rect x="458.3" y="283" width="14" height="40.5"/><rect x="390.3" y="254.8" width="14" height="96.8"/><rect x="254.3" y="234.2" width="14" height="138"/><rect x="220.3" y="270.2" width="14" height="66"/><rect x="186.3" y="286.2" width="14" height="34"/><path d="M531.4 436.4c-6.8 0-13.6-0.6-19.1-2.1 -1.9-0.5-3.5-1.9-4.4-3.7s-0.9-3.8-0.2-5.7c32.1-80.1 32.3-135.8 0.7-220.7 -0.4-1.1-0.5-2.3-0.4-3.4 0.6-4.3 3.1-6.7 5.8-8 -26.4-73.7-94.8-117.5-184.6-117.5 -0.2 0-0.4 0-0.6 0 -89.9 0-158.3 43.7-184.6 117.5 2.7 1.3 5.2 3.7 5.8 8 0.2 1.2 0 2.3-0.4 3.4 -31.6 84.9-31.4 140.6 0.7 220.7 0.7 1.8 0.7 3.9-0.2 5.7 -0.9 1.8-2.5 3.1-4.4 3.7 -17.9 5.1-49.4-0.6-50.7-0.8 -2.5-0.5-4.5-2.2-5.3-4.6l-3.2-9.3c-9.2-0.7-21.4-2.6-26.2-8.2 -21.3-24.7-32.4-64-30.5-107.8 1.8-41.1 15.1-77.9 34.8-96.1 0.4-0.4 0.9-0.8 1.5-1 8.8-4.7 17.2-5.5 22-5.6 2.3-2.4 6.1-5.6 11.3-7.6 13.4-51.7 43.7-94.8 87.6-124.8 40.2-27.4 90.6-42.6 142-42.9 0.1 0 0.1 0 0.2 0 51.4 0.2 101.8 15.5 142.1 42.9 44 30 74.2 73 87.6 124.8 5.2 2 9 5.2 11.3 7.6 4.8 0 13.3 0.9 22 5.6 0.5 0.3 1 0.6 1.5 1 19.6 18.2 33 55 34.8 96.1 1.9 43.8-9.2 83.2-30.5 107.8 -4.8 5.6-17 7.5-26.2 8.2l-3.2 9.3c-0.8 2.4-2.9 4.1-5.3 4.6C562.1 433.6 546.7 436.4 531.4 436.4zM523.8 422.1c10.7 0.9 24.5-0.6 32.6-1.8l3.4-9.8c0.9-2.7 3.5-4.6 6.4-4.7 8.9-0.3 18.9-2.1 21-3.7 18.6-21.7 28.7-58.3 27-98 -1.6-37.1-12.9-69.8-29.6-85.8 -8.7-4.4-16.8-3.5-16.9-3.5 -2.6 0.3-5.2-0.8-6.7-3l0 0c0 0-3.7-5-9.8-6.4 -2.6-0.6-4.7-2.6-5.3-5.2C519.4 89.8 417.8 39.9 329 39.5c0 0 0 0-0.1 0 -88.8 0.4-190.3 50.3-217 160.8 -0.6 2.6-2.7 4.6-5.3 5.2 -6.1 1.4-9.8 6.4-9.8 6.4 -1.5 2.2-4 3.3-6.6 2.9 0 0-8.2-0.9-16.9 3.5 -16.7 16-28 48.8-29.6 85.8 -1.7 39.6 8.3 76.3 27 98 2.2 1.6 12.2 3.4 21 3.7 2.9 0.1 5.4 2 6.4 4.7l3.4 9.8c8.1 1.2 21.9 2.7 32.6 1.8 -14.9-39.1-21.8-71.4-22.1-103.9 -0.3-34.5 6.6-69.7 22.4-113.4 -0.1 0-0.1 0-0.2 0 -2.1-0.2-3.9-1.4-5.1-3.1 -1.1-1.7-1.4-3.9-0.8-5.9 13.3-42.5 39.7-77.3 76.4-100.8 34.5-22.1 77.4-33.7 124-33.7 0.2 0 0.4 0 0.6 0 46.6 0 89.5 11.7 124 33.7 36.7 23.4 63.1 58.3 76.4 100.8 0.6 2 0.3 4.2-0.8 5.9 -1.1 1.7-3 2.9-5.1 3.1 -0.1 0-0.1 0-0.2 0 15.8 43.7 22.7 78.9 22.4 113.4C545.6 350.7 538.8 383.1 523.8 422.1z"/></svg>