<svg xmlns="http://www.w3.org/2000/svg" viewBox="44.7 45.3 512 512"><path d="M500.7 497.6l-11.8-2.2c-25.5-4.7-59.4-14.3-76.9-24.2 -27.4 6.3-54.6 5.9-78.7-1.2 -22.9-6.8-42.6-19.3-57-36.3l9.1-7.8c28.2 33.1 75.4 45.5 126.1 33l2.4-0.6 2.1 1.3c13 8 40.1 16.4 63.2 21.5 -7.2-15.8-15.1-37.4-14.6-53.9l0.1-2.1 1.3-1.6c24.6-29.6 24.5-71.6-0.2-102l9.3-7.6c27.9 34.3 28.4 81.6 1.5 115.6 0.3 13.4 7 34.1 18.6 57.2L500.7 497.6zM100.7 434.8l5.4-10.8c17.6-35 27.6-66.4 27.7-86.5 -18.8-23.4-29.1-52.8-29.1-82.9 0-41.2 19.1-79.4 53.7-107.6 32.8-26.7 77.6-42 122.9-42 45.1 0 89.8 15.3 122.6 41.9 34.8 28.2 53.9 66.4 53.9 107.7 0 41.7-20.7 81.9-56.9 110.2 -21.8 17.1-48.5 29.1-77.3 34.8 -30.9 6.1-63.8 5.1-97.7-2.9 -25.1 14.6-75.4 29-113.3 35.9L100.7 434.8zM281.2 117.1c-90.7 0-164.6 61.7-164.6 137.6 0 28 9.8 55.4 27.7 76.9l1.3 1.6 0.1 2.1c0.8 25.7-12.7 60-23.7 83.4 35.5-7.4 79.2-20.6 99.6-33.3l2.1-1.3 2.4 0.6c63 15.5 123.9 4.9 167.2-29.1 33.3-26.1 52.3-62.8 52.3-100.8C445.8 178.8 372 117.1 281.2 117.1z"/><rect x="189.8" y="211.9" width="181.7" height="12"/><rect x="189.8" y="248.6" width="181.7" height="12"/><rect x="189.8" y="285.2" width="181.7" height="12"/></svg>
