<?xml version="1.0" encoding="utf-8"?>
<!-- Generator: Adobe Illustrator 19.0.0, SVG Export Plug-In . SVG Version: 6.00 Build 0)  -->
<svg version="1.1" id="Layer_1" xmlns="http://www.w3.org/2000/svg" xmlns:xlink="http://www.w3.org/1999/xlink" x="0px" y="0px"
	 viewBox="0 0 595.3 841.9" style="enable-background:new 0 0 595.3 841.9;" xml:space="preserve">
<style type="text/css">
	.st0{fill:#306FB7;}
	.st1{fill:#FFFFFF;}
	.st2{opacity:0.43;fill:#FFFFFF;}
	.st3{font-family:'InterFace-Bold';}
	.st4{font-size:53.2795px;}
	.st5{fill:#C31984;}
</style>
<path class="st0" d="M283,516.9l-159.5-43.4c-43.8-11.9-69.6-57-57.7-100.8l10.3-38c10.1-37.3,48.6-59.3,85.8-49.1l171.3,46.6
	L283,516.9z"/>
<g>
	
		<image style="overflow:visible;opacity:0.78;" width="1180" height="1085" id="XMLID_18_" xlink:href="292AF10F.png"  transform="matrix(0.24 0 0 0.24 268.5711 317.7621)">
	</image>
	<g id="XMLID_11_">
		<path id="XMLID_17_" class="st1" d="M423.5,555.1l-133.9-36.4c-3.6-1-5.8-4.8-4.8-8.4l46.6-171.5c1-3.6,4.8-5.8,8.4-4.8
			l120.2,32.7c51.5,14,82.2,67.6,68.2,119.1l-3,11.1C513.3,540.9,467.5,567.1,423.5,555.1z"/>
	</g>
</g>
<path class="st2" d="M450,413.3l-217.8-59.2c-3.2-0.9-5.2-4.2-4.3-7.5l0.8-3c0.9-3.2,4.2-5.2,7.5-4.3L454,398.5
	c3.2,0.9,5.2,4.2,4.3,7.5l-0.8,3C456.6,412.3,453.2,414.2,450,413.3z"/>
<text id="XMLID_2_" transform="matrix(0.965 0.2623 -0.2623 0.965 89.1713 383.0704)"><tspan x="0" y="0" class="st1 st3 st4">BMJ Case</tspan><tspan x="214.9" y="0" class="st5 st3 st4"> Reports</tspan></text>
</svg>
