<?xml version="1.0" encoding="utf-8"?>
<!-- Generator: Adobe Illustrator 19.0.0, SVG Export Plug-In . SVG Version: 6.00 Build 0)  -->
<svg version="1.1" id="Layer_1" xmlns="http://www.w3.org/2000/svg" xmlns:xlink="http://www.w3.org/1999/xlink" x="0px" y="0px"
	 viewBox="-596 -173 1366 768" style="enable-background:new -596 -173 1366 768;" xml:space="preserve">
<style type="text/css">
	.st0{display:none;}
	.st1{display:inline;fill:#FFFFFF;stroke:#000000;stroke-width:12;}
	.st2{display:inline;}
	.st3{fill:#2A6EBB;}
	.st4{fill:#C50084;}
	.st5{opacity:0.43;fill:#FFFFFF;enable-background:new    ;}
	.st6{fill:#FFFFFF;}
	.st7{font-family:'InterFace-Bold';}
	.st8{font-size:59px;}
	.st9{display:none;fill:#FFFFFF;enable-background:new    ;}
	.st10{fill:none;stroke:#FFFFFF;stroke-width:3;stroke-miterlimit:10;}
	.st11{fill:none;stroke:#FFFFFF;stroke-width:4;}
	.st12{fill:none;stroke:#FFFFFF;stroke-width:2;}
	.st13{fill:none;stroke:#FFFFFF;stroke-width:5;}
	.st14{fill:none;stroke:#FFFFFF;stroke-width:3;}
</style>
<g id="pill_title" class="st0">
	<path class="st1" d="M252,167H-63c-58.3,0-106-47.7-106-106l0,0c0-58.3,47.7-106,106-106h315c58.3,0,106,47.7,106,106l0,0
		C358,119.3,310.3,167,252,167z"/>
	<g class="st2">
		<path class="st3" d="M105,167H-54.5C-117.7,167-169,115.7-169,52.5l0,0C-169-1.3-125.3-45-71.5-45H105V167z"/>
		<path class="st4" d="M252,167H105V-45h147c58.3,0,106,47.7,106,106l0,0C358,119.3,310.3,167,252,167z"/>
		<path class="st5" d="M223-4H-23.5c-4.7,0-8.5-3.8-8.5-8.5l0,0c0-4.7,3.8-8.5,8.5-8.5H223c4.7,0,8.5,3.8,8.5,8.5l0,0
			C231.5-7.8,227.7-4,223-4z"/>
		<text transform="matrix(1 0 0 1 -140 87)" class="st6 st7 st8">BMJ Case Reports</text>
	</g>
</g>
<g id="pill">
	<g id="pill_1_">
		<path class="st3" d="M105,167H-54.5C-117.7,167-169,115.7-169,52.5l0,0C-169-1.3-125.3-45-71.5-45H105V167z"/>
		<path class="st4" d="M252,167H105V-45h147c58.3,0,106,47.7,106,106l0,0C358,119.3,310.3,167,252,167z"/>
		<path class="st5" d="M223-4H-23.5c-4.7,0-8.5-3.8-8.5-8.5l0,0c0-4.7,3.8-8.5,8.5-8.5H223c4.7,0,8.5,3.8,8.5,8.5l0,0
			C231.5-7.8,227.7-4,223-4z"/>
		<text transform="matrix(1 0 0 1 -140 87)" class="st9 st7 st8">BMJ Case Reports</text>
	</g>
	<g id="report">
		<path class="st10" d="M232.3,135H169c-6.1,0-11-4.9-11-11V41.2c0-6.1,4.9-11,11-11h63.3c6.1,0,11,4.9,11,11V124
			C243.3,130.1,238.4,135,232.3,135z"/>
		<polygon class="st11" points="222.2,30.7 222.2,60.5 227.6,65.7 232.9,60.5 232.9,30.7 		"/>
		<rect x="164.7" y="29.7" class="st6" width="2.5" height="105"/>
		<rect x="187.3" y="60.4" class="st6" width="28.4" height="7.6"/>
		<rect x="197.6" y="50" class="st6" width="7.8" height="28.5"/>
		<rect x="183.3" y="104.8" class="st11" width="36.5" height="15.8"/>
		<line class="st12" x1="183.8" y1="110.3" x2="219.6" y2="110.3"/>
		<line class="st12" x1="183.8" y1="114.3" x2="219.2" y2="114.3"/>
	</g>
	<g id="case">
		<path class="st11" d="M48.4,135H-61.5c-6.8,0-12.3-5.5-12.3-12.3V54.3c0-6.8,5.5-12.3,12.3-12.3H48.4c6.8,0,12.3,5.6,12.3,12.3
			v68.4C60.8,129.5,55.2,135,48.4,135z"/>
		<path class="st13" d="M14.5,41.8h-43.2c-2.6,0-4.7-2.1-4.7-4.7v-0.9c0-7.4,6-13.3,13.3-13.3H6.1c7.2,0,13,5.8,13,13v1.3
			C19.1,39.7,17,41.8,14.5,41.8z"/>
		<path class="st14" d="M-72.2,79.2c0,0.1,67.5,20.6,132.9-2.1"/>
	</g>
</g>
</svg>
