<svg version="1.1" id="Layer_1" xmlns="http://www.w3.org/2000/svg" xmlns:xlink="http://www.w3.org/1999/xlink" x="0px" y="0px"
	 viewBox="0 0 40 40" style="enable-background:new 0 0 40 40;" xml:space="preserve">
<style type="text/css">
	.st0{fill:#FFFFFF;}
</style>
<g id="twitter-icon">
	<path class="st0" d="M14.4,35.7c-3.9,0-7.8-1.1-11.1-3.2l-3.1-2l3.7,0.4c2.8,0.3,5.5-0.2,7.9-1.5c-2.4-0.8-4.3-2.6-5-5L6.3,23
		L7,23.1c-1.8-1.5-2.8-3.7-2.8-6l0-1.4l1.2,0.7c0,0,0,0,0,0C4,14,3.8,10.9,5.3,8.4l0.6-1l0.8,0.9c3.2,3.8,7.7,6.3,12.7,6.8
		c-0.2-1.9,0.4-3.9,1.6-5.4c1.5-1.9,3.7-3,6.1-3c2,0,3.9,0.8,5.3,2.1c1.3-0.3,2.6-0.8,3.7-1.5l1.9-1.1l-0.7,2.1
		c-0.2,0.7-0.6,1.4-1,2c0.3-0.1,0.5-0.2,0.8-0.3l2.7-1.2l-1.6,2.4c-0.9,1.3-2,2.5-3.3,3.5c0.1,5.3-2,10.8-5.8,14.7
		C26.5,32.3,21.8,35.7,14.4,35.7z M7.2,32.6c2.3,0.9,4.7,1.4,7.2,1.4c6.8,0,11.2-3.1,13.6-5.6c3.5-3.7,5.5-8.9,5.3-14l0-0.5l0.4-0.3
		c0.5-0.4,1-0.7,1.4-1.2c-0.4,0.1-0.9,0.2-1.4,0.2l-4,0.5l3.4-2c0.5-0.3,1-0.7,1.4-1.2c-0.7,0.3-1.5,0.5-2.2,0.6l-0.5,0.1l-0.3-0.3
		c-1.1-1.2-2.8-1.9-4.5-1.9c-1.9,0-3.6,0.8-4.8,2.3c-1.1,1.4-1.6,3.3-1.1,5.1l0.3,1.1l-1.1-0.1C15,16.6,9.9,14.2,6.3,10.4
		c-0.9,2.5,0.1,5.4,2.4,6.9l2.5,1.6l-3-0.1c-0.7,0-1.5-0.1-2.2-0.4c0.5,2.3,2.4,4.2,4.8,4.7l3.6,0.7l-3.5,0.9
		c-0.6,0.2-1.3,0.3-2,0.3c1.1,1.8,3,2.9,5.1,3l2.4,0l-1.9,1.5C12.4,31.2,9.8,32.3,7.2,32.6z"/>
</g>
</svg>
