<?xml version="1.0" encoding="utf-8"?>
<!-- Generator: Adobe Illustrator 19.0.0, SVG Export Plug-In . SVG Version: 6.00 Build 0)  -->
<svg version="1.1" id="Layer_1" xmlns="http://www.w3.org/2000/svg" xmlns:xlink="http://www.w3.org/1999/xlink" x="0px" y="0px"
	 viewBox="-277 400.9 40 40" style="enable-background:new -277 400.9 40 40;" xml:space="preserve">
<style type="text/css">
	.st0{fill:#FFFFFF;}
	.st1{fill:none;}
	.st2{fill:#FFFDFD;}
</style>
<g id="XMLID_6_">
	<polygon class="st0" points="-270.7,433.5 -274.6,433.5 -274.6,400.9 -249.5,400.9 -249.5,404.4 -251,404.4 -251,402.4 
		-273.1,402.4 -273.1,432 -270.7,432 	"/>
</g>
<polygon class="st1" points="-241.8,430.1 -246.4,429.5 -248.5,425.4 -250.5,429.6 -255.1,430.3 -251.7,433.5 -252.4,438.1 
	-248.3,435.9 -244.2,438 -245.1,433.4 "/>
<polygon class="st1" points="-258.3,429.4 -251.5,428.2 -248.6,422 -246.7,425.7 -246.7,406.7 -268.8,406.7 -268.8,436.3 
	-253.7,436.3 -253.3,434.1 "/>
<path class="st0" d="M-238.6,429l-6.6-0.8v-23h-25.1v32.6h16.4l-0.5,3.1l6-3.3l6.2,3.1l-1.2-6.8L-238.6,429z M-268.8,436.3v-29.6
	h22.1v19l-1.9-3.7l-2.9,6.2l-6.8,1.1l5,4.7l-0.3,2.2h-15.2V436.3z M-248.3,435.9l-4.1,2.2l0.7-4.6l-3.4-3.2l4.6-0.8l2-4.2l2.1,4.1
	l4.6,0.6l-3.3,3.3l0.9,4.6L-248.3,435.9z"/>
<path id="XMLID_4_" class="st0" d="M-249.9,414.2h-15.7c-0.3,0-0.5-0.4-0.5-0.8c0-0.4,0.2-0.8,0.5-0.8h15.7c0.3,0,0.5,0.4,0.5,0.8
	C-249.4,413.8-249.6,414.2-249.9,414.2z"/>
<path id="XMLID_2_" class="st0" d="M-249.9,420.8h-15.7c-0.3,0-0.5-0.4-0.5-0.8c0-0.4,0.2-0.8,0.5-0.8h15.7c0.3,0,0.5,0.4,0.5,0.8
	C-249.3,420.4-249.6,420.8-249.9,420.8z"/>
<path id="XMLID_1_" class="st2" d="M-251.4,427.4h-14.2c-0.3,0-0.5-0.4-0.5-0.8s0.2-0.8,0.5-0.8h14.2c0.3,0,0.5,0.4,0.5,0.8
	S-251.2,427.4-251.4,427.4z"/>
</svg>
