<svg class="primary-color-fill" version="1.1" id="Layer_2_1_" xmlns="http://www.w3.org/2000/svg" xmlns:xlink="http://www.w3.org/1999/xlink" x="0px" y="0px"
	 viewBox="-277 400.9 40 40" style="enable-background:new -277 400.9 40 40;" xml:space="preserve">
<style type="text/css">
	path.st0{fill:none;stroke:var(--primaryColor);stroke-width:1.7;stroke-miterlimit:10;}
</style>
<path class="st0" d="M-253.3,435.8c0,2.1-1.7,3.8-3.8,3.8s-3.8-1.7-3.8-3.8c0-0.2,0-0.5,0.1-0.7h7.4
	C-253.3,435.3-253.3,435.5-253.3,435.8z M-245.9,429.1l-2-12.7c-0.7-3.8-3.2-7-7-7h0v-5.6c0-0.7-0.5-1.3-1-1.3h-2.1
	c-0.5,0-1,0.6-1,1.3v5.6c-3.6,0.2-6.3,3.3-6.5,7l-2.5,12.7c-1.4,3.7-5.9,6-2,6h26.2C-240.1,435.1-244.3,432.7-245.9,429.1z"/>
</svg>
