<?xml version="1.0" encoding="utf-8"?>
<!-- Generator: Adobe Illustrator 19.0.0, SVG Export Plug-In . SVG Version: 6.00 Build 0)  -->
<svg version="1.1" id="Layer_1" xmlns="http://www.w3.org/2000/svg" xmlns:xlink="http://www.w3.org/1999/xlink" x="0px" y="0px"
	 viewBox="-41 164.9 512 512" style="enable-background:new -41 164.9 512 512;" xml:space="preserve">
<style type="text/css">
	.st0{fill:#FFFFFF;stroke:#FFFFFF;stroke-width:5;stroke-miterlimit:10;}
</style>
<path class="st0" d="M46.6,541.6l9.9,9.9l-10.3,10.3c-2.7,2.7-7.2,2.7-9.9,0c-2.7-2.7-2.7-7.2,0-9.9L46.6,541.6z M272,229.1
	c-8.4-8.4-14-2.3-22.3,6.1L160.8,324c-8.4,8.4-12.3,12.1-3.9,20.5L272,229.1z M201.5,443.9L154.7,491c-18.7,17.1-52,35.3-86.5,38.9
	c3.9-24.8,17.5-59.5,41.5-85.2l46.2-46.2l-7-7.1l-46.8,46.8c-26.3,26.3-36,59.4-45.4,94l9.8,8.8c35.6-9.2,68.8-17.1,95.2-43.5
	l46.8-46.8L201.5,443.9z M293.8,240.3c18.1-18.1,47.5-18.1,65.6,0c18.1,18.1,18.1,47.5,0,65.6L228.7,436.6L163.1,371L293.8,240.3z
	 M354.3,246.6c-17.5-18.7-42.5-10.6-50.5-2.6L176.2,370.7l53.1,53.1l127.5-127.5C364.9,288.2,371.4,260.9,354.3,246.6z"/>
</svg>
