<?xml version="1.0" encoding="utf-8"?>
<!-- Generator: Adobe Illustrator 19.0.0, SVG Export Plug-In . SVG Version: 6.00 Build 0)  -->
<svg version="1.1" id="Layer_1" xmlns="http://www.w3.org/2000/svg" xmlns:xlink="http://www.w3.org/1999/xlink" x="0px" y="0px"
	 viewBox="-277 400.9 40 40" style="enable-background:new -277 400.9 40 40;" xml:space="preserve">
<style type="text/css">
	.st0{fill:#FFFFFF;}
</style>
<g>
	<g id="speech-bubble-13-icon">
		<path class="st0" d="M-238.1,439.8l-1.7-0.3c-2.3-0.4-5.4-1.3-7.1-2.2c-5.2,1.2-9.7-0.1-12.7-3.6l-1.2-1.4l1.9,0
			c7.5,0,14-3.8,16.7-9.8l0.6-1.3l0.9,1.1c2.6,3.2,2.7,7.7,0.2,10.9c0.1,1.2,0.7,3,1.7,5L-238.1,439.8z M-246.5,435.4l0.3,0.2
			c1.1,0.7,3.2,1.3,5.2,1.8c-0.6-1.4-1.2-3.2-1.1-4.6l0-0.3l0.2-0.2c1.9-2.3,2.1-5.3,0.7-7.9c-3,5.3-8.8,8.9-15.6,9.4
			c2.6,2,6,2.6,10,1.6L-246.5,435.4z M-277,433l0.8-1.5c1.6-3.1,2.5-5.9,2.5-7.7c-1.7-2.2-2.7-4.9-2.7-7.7c0-7.8,7.4-14.1,16.6-14.1
			c9.1,0,16.6,6.3,16.6,14.1c0,3.9-2,7.7-5.4,10.4c-4.3,3.3-10.2,4.4-16.3,3c-2.4,1.3-7,2.7-10.4,3.3L-277,433z M-259.8,403.6
			c-8.2,0-14.9,5.6-14.9,12.4c0,2.5,0.9,5,2.5,6.9l0.2,0.2l0,0.3c0.1,2.2-1,5.1-2,7.3c3.1-0.7,6.8-1.8,8.5-2.9l0.3-0.2l0.3,0.1
			c5.7,1.4,11.2,0.4,15.2-2.6c3-2.3,4.7-5.6,4.7-9.1C-244.9,409.1-251.6,403.6-259.8,403.6z"/>
	</g>
	<rect x="-268.2" y="410.9" class="st0" width="16.8" height="1.7"/>
	<rect x="-268.2" y="415.4" class="st0" width="16.8" height="1.7"/>
	<rect x="-268.2" y="419.9" class="st0" width="16.8" height="1.7"/>
</g>
</svg>
