<?xml version="1.0" encoding="utf-8"?>
<!-- Generator: Adobe Illustrator 19.0.0, SVG Export Plug-In . SVG Version: 6.00 Build 0)  -->
<svg version="1.1" id="Layer_1" xmlns="http://www.w3.org/2000/svg" xmlns:xlink="http://www.w3.org/1999/xlink" x="0px" y="0px"
	 viewBox="-280.4 392.1 30.9 40" style="enable-background:new -280.4 392.1 30.9 40;" xml:space="preserve">
<style type="text/css">
	.st0{fill:none;}
	.st1{fill:#669933;}
</style>
<path class="st0" d="M-285,392.9h40v40h-40V392.9z"/>
<path class="st1" d="M-253.4,405.4h-1.9v-3.8c0-5.3-4.3-9.5-9.6-9.5s-9.6,4.3-9.6,9.5v3.8h-1.9c-2.1,0-3.9,1.7-3.9,3.8v19
	c0,2.1,1.7,3.8,3.9,3.8h23.2c2.1,0,3.9-1.7,3.9-3.8v-19C-249.6,407.1-251.3,405.4-253.4,405.4z M-271,401.6c0-3.3,2.7-5.9,6-5.9
	c3.3,0,6,2.6,6,5.9v3.8h-12V401.6z M-257.3,420.6h-5.8v5.7h-3.9v-5.7h-5.8v-3.8h5.8v-5.7h3.9v5.7h5.8V420.6z"/>
<path class="st0" d="M-285,392.9h40v40h-40V392.9z"/>
</svg>
