<?xml version="1.0" encoding="utf-8"?>
<!-- Generator: Adobe Illustrator 19.0.0, SVG Export Plug-In . SVG Version: 6.00 Build 0)  -->
<svg version="1.1" id="Layer_1" xmlns="http://www.w3.org/2000/svg" xmlns:xlink="http://www.w3.org/1999/xlink" x="0px" y="0px"
	 viewBox="-277 400.9 40 40" style="enable-background:new -277 400.9 40 40;" xml:space="preserve">
<style type="text/css">
	.st0{fill:#FFFFFF;}
</style>
<g>
	<g id="XMLID_9_">
		<path class="st0" d="M-264.9,421.6c-2.2,0-3.9-1.8-3.9-3.9c0-2.2,1.8-3.9,3.9-3.9s3.9,1.8,3.9,3.9
			C-261,419.8-262.7,421.6-264.9,421.6z M-264.9,415.3c-1.3,0-2.4,1.1-2.4,2.4s1.1,2.4,2.4,2.4s2.4-1.1,2.4-2.4
			S-263.6,415.3-264.9,415.3z"/>
	</g>
	<g id="XMLID_8_">
		<path class="st0" d="M-247.8,415.2c-2.2,0-3.9-1.8-3.9-3.9s1.8-3.9,3.9-3.9c2.2,0,3.9,1.8,3.9,3.9S-245.6,415.2-247.8,415.2z
			 M-247.8,408.9c-1.3,0-2.4,1.1-2.4,2.4s1.1,2.4,2.4,2.4c1.3,0,2.4-1.1,2.4-2.4S-246.5,408.9-247.8,408.9z"/>
	</g>
	<g id="XMLID_7_">
		<path class="st0" d="M-254.8,431c-2.2,0-3.9-1.8-3.9-3.9c0-2.2,1.8-3.9,3.9-3.9c2.2,0,3.9,1.8,3.9,3.9S-252.7,431-254.8,431z
			 M-254.8,424.7c-1.3,0-2.4,1.1-2.4,2.4c0,1.3,1.1,2.4,2.4,2.4c1.3,0,2.4-1.1,2.4-2.4C-252.4,425.8-253.5,424.7-254.8,424.7z"/>
	</g>
	<g id="XMLID_6_">
		<path class="st0" d="M-269.6,424.2c-0.2,0-0.3,0-0.5-0.1c-0.3-0.3-0.4-0.7-0.2-1.1l2.5-3.4c0.3-0.3,0.7-0.4,1.1-0.2
			c0.3,0.3,0.4,0.7,0.2,1.1l-2.5,3.4C-269.1,424.1-269.4,424.2-269.6,424.2z"/>
	</g>
	<g id="XMLID_5_">
		<path class="st0" d="M-256.8,425.3c-0.2,0-0.4-0.1-0.5-0.2l-5.2-4.6c-0.3-0.3-0.3-0.8-0.1-1.1c0.3-0.3,0.8-0.4,1.1-0.1l5.2,4.6
			c0.3,0.3,0.3,0.8,0.1,1.1C-256.4,425.2-256.6,425.3-256.8,425.3z"/>
	</g>
	<g id="XMLID_4_">
		
			<rect x="-256.7" y="418.4" transform="matrix(-0.4035 0.915 -0.915 -0.4035 30.5607 818.4789)" class="st0" width="10.5" height="1.5"/>
	</g>
	<g id="XMLID_3_">
		<path class="st0" d="M-240.5,419c-0.2,0-0.4-0.1-0.5-0.2l-4.5-4c-0.3-0.3-0.3-0.8-0.1-1.1c0.3-0.3,0.8-0.3,1.1-0.1l4.5,4
			c0.3,0.3,0.3,0.8,0.1,1.1C-240,418.9-240.3,419-240.5,419z"/>
	</g>
	<g id="XMLID_1_">
		<path class="st0" d="M-239,438.9h-36c-0.5,0-0.9-0.4-0.9-0.9v-34.2c0-0.5,0.4-0.9,0.9-0.9s0.9,0.4,0.9,0.9v33.3h35.1
			c0.5,0,0.9,0.4,0.9,0.9C-238.1,438.5-238.5,438.9-239,438.9z"/>
	</g>
	<g id="XMLID_2_">
		<path class="st0" d="M-239,438.9c-0.5,0-0.9-0.4-0.9-0.9v-1.8c0-0.5,0.4-0.9,0.9-0.9s0.9,0.4,0.9,0.9v1.8
			C-238.1,438.5-238.5,438.9-239,438.9z"/>
	</g>
	<g id="XMLID_10_">
		<path class="st0" d="M-250.7,438.9c-0.5,0-0.9-0.4-0.9-0.9v-1.8c0-0.5,0.4-0.9,0.9-0.9c0.5,0,0.9,0.4,0.9,0.9v1.8
			C-249.8,438.5-250.2,438.9-250.7,438.9z"/>
	</g>
	<g id="XMLID_11_">
		<path class="st0" d="M-263.3,438.9c-0.5,0-0.9-0.4-0.9-0.9v-1.8c0-0.5,0.4-0.9,0.9-0.9c0.5,0,0.9,0.4,0.9,0.9v1.8
			C-262.4,438.5-262.8,438.9-263.3,438.9z"/>
	</g>
	<g id="XMLID_16_">
		<path class="st0" d="M-273.2,404.7h-1.8c-0.5,0-0.9-0.4-0.9-0.9c0-0.5,0.4-0.9,0.9-0.9h1.8c0.5,0,0.9,0.4,0.9,0.9
			C-272.3,404.3-272.7,404.7-273.2,404.7z"/>
	</g>
	<g id="XMLID_15_">
		<path class="st0" d="M-273.2,416.4h-1.8c-0.5,0-0.9-0.4-0.9-0.9c0-0.5,0.4-0.9,0.9-0.9h1.8c0.5,0,0.9,0.4,0.9,0.9
			C-272.3,416-272.7,416.4-273.2,416.4z"/>
	</g>
	<g id="XMLID_14_">
		<path class="st0" d="M-273.2,428.1h-1.8c-0.5,0-0.9-0.4-0.9-0.9s0.4-0.9,0.9-0.9h1.8c0.5,0,0.9,0.4,0.9,0.9
			S-272.7,428.1-273.2,428.1z"/>
	</g>
</g>
</svg>
