<?xml version="1.0" encoding="utf-8"?>
<!-- Generator: Adobe Illustrator 19.0.0, SVG Export Plug-In . SVG Version: 6.00 Build 0)  -->
<svg version="1.1" id="Layer_1" xmlns="http://www.w3.org/2000/svg" xmlns:xlink="http://www.w3.org/1999/xlink" x="0px" y="0px"
	 viewBox="-277 400.9 40 40" style="enable-background:new -277 400.9 40 40;" xml:space="preserve">
<style type="text/css">
	.st0{fill:#FFFFFF;}
</style>
<g id="twitter-icon">
	<path class="st0" d="M-262.8,437.5c-3.9,0-7.8-1.1-11.1-3.2l-3.1-2l3.7,0.4c2.8,0.3,5.5-0.2,7.9-1.5c-2.4-0.8-4.3-2.6-5-5l-0.4-1.4
		l0.8,0.1c-1.8-1.5-2.8-3.7-2.8-6v-1.4l1.2,0.7l0,0c-1.5-2.4-1.7-5.5-0.1-8l0.6-1l0.8,0.9c3.2,3.8,7.7,6.3,12.7,6.8
		c-0.2-1.9,0.4-3.9,1.6-5.4c1.5-1.9,3.7-3,6.1-3c2,0,3.9,0.8,5.3,2.1c1.3-0.3,2.6-0.8,3.7-1.5l1.9-1.1l-0.7,2.1
		c-0.2,0.7-0.6,1.4-1,2c0.3-0.1,0.5-0.2,0.8-0.3l2.7-1.2l-1.6,2.4c-0.9,1.3-2,2.5-3.3,3.5c0.1,5.3-2,10.8-5.8,14.7
		C-250.7,434.1-255.4,437.5-262.8,437.5z M-270,434.4c2.3,0.9,4.7,1.4,7.2,1.4c6.8,0,11.2-3.1,13.6-5.6c3.5-3.7,5.5-8.9,5.3-14v-0.5
		l0.4-0.3c0.5-0.4,1-0.7,1.4-1.2c-0.4,0.1-0.9,0.2-1.4,0.2l-4,0.5l3.4-2c0.5-0.3,1-0.7,1.4-1.2c-0.7,0.3-1.5,0.5-2.2,0.6l-0.5,0.1
		l-0.3-0.3c-1.1-1.2-2.8-1.9-4.5-1.9c-1.9,0-3.6,0.8-4.8,2.3c-1.1,1.4-1.6,3.3-1.1,5.1l0.3,1.1l-1.1-0.1c-5.4-0.3-10.4-2.6-14.1-6.5
		c-0.9,2.5,0.1,5.4,2.4,6.9l2.5,1.6l-3-0.1c-0.7,0-1.5-0.1-2.2-0.4c0.5,2.3,2.4,4.2,4.8,4.7l3.6,0.7l-3.5,0.9
		c-0.6,0.2-1.3,0.3-2,0.3c1.1,1.8,3,2.9,5.1,3h2.4l-1.9,1.5C-264.8,433-267.4,434-270,434.4z"/>
</g>
</svg>
