<?xml version="1.0" encoding="utf-8"?>
<!-- Generator: Adobe Illustrator 19.0.0, SVG Export Plug-In . SVG Version: 6.00 Build 0)  -->
<svg version="1.1" id="Layer_1" xmlns="http://www.w3.org/2000/svg" xmlns:xlink="http://www.w3.org/1999/xlink" x="0px" y="0px"
	 viewBox="-41 164.9 512 512" style="enable-background:new -41 164.9 512 512;" xml:space="preserve">
<style type="text/css">
	.st0{fill:#FFFFFF;}
</style>
<path class="st0" d="M32.7,590l11.6,11.6l-12,12c-3.2,3.2-8.4,3.2-11.6,0c-3.2-3.2-3.2-8.4,0-11.6L32.7,590z M296,224.9
	c-9.8-9.8-16.3-2.7-26.1,7.1L166.1,335.8c-9.8,9.8-14.4,14.1-4.6,23.9L296,224.9z M213.6,475.9l-54.6,55
	c-21.8,20-60.8,41.2-101,45.5c4.5-29,20.5-69.5,48.5-99.5l54-54l-8.2-8.3l-54.7,54.7c-30.7,30.7-42,69.4-53,109.8L56,589.4
	c41.6-10.7,80.4-20,111.2-50.8l54.7-54.7L213.6,475.9z M321.5,238c21.2-21.2,55.5-21.2,76.6,0c21.2,21.2,21.2,55.5,0,76.6
	L245.4,467.3l-76.6-76.6L321.5,238z M392.1,245.3c-20.4-21.8-49.6-12.4-59-3l-149,148l62,62l149-149
	C404.5,293.9,412.1,262.1,392.1,245.3z"/>
</svg>
